{
  "accessors": [
    {
      "bufferView": 2,
      "componentType": 5126,
      "count": 1412,
      "max": [
        0.9188034534454346,
        18.56829261779785,
        0.4355320632457733
      ],
      "min": [
        -7.76629638671875,
        -0.9188034534454346,
        -33.12495422363281
      ],
      "type": "VEC3"
    },
    {
      "bufferView": 2,
      "byteOffset": 16944,
      "componentType": 5126,
      "count": 1412,
      "max": [
        0.9767460227012634,
        0.9965472221374512,
        0.9873468279838562
      ],
      "min": [
        -0.9975953698158264,
        -0.989713191986084,
        -1.0
      ],
      "type": "VEC3"
    },
    {
      "bufferView": 1,
      "componentType": 5126,
      "count": 1412,
      "max": [
        0.4601503014564514,
        0.7722669243812561
      ],
      "min": [
        0.4340215027332306,
        0.7407276034355164
      ],
      "type": "VEC2"
    },
    {
      "bufferView": 0,
      "componentType": 5125,
      "count": 8448,
      "type": "SCALAR"
    },
    {
      "bufferView": 2,
      "byteOffset": 33888,
      "componentType": 5126,
      "count": 19460,
      "max": [
        1.7118090391159058,
        18.017616271972656,
        -0.5576703548431396
      ],
      "min": [
        -8.368820190429688,
        -11.729188919067383,
        -52.39664077758789
      ],
      "type": "VEC3"
    },
    {
      "bufferView": 2,
      "byteOffset": 267408,
      "componentType": 5126,
      "count": 19460,
      "max": [
        0.9999980926513672,
        1.0,
        0.999846339225769
      ],
      "min": [
        -0.9999909400939941,
        -1.0,
        -0.9999154806137085
      ],
      "type": "VEC3"
    },
    {
      "bufferView": 1,
      "byteOffset": 11296,
      "componentType": 5126,
      "count": 19460,
      "max": [
        0.9536978602409363,
        0.797318696975708
      ],
      "min": [
        0.05063766986131668,
        0.24277138710021973
      ],
      "type": "VEC2"
    },
    {
      "bufferView": 0,
      "byteOffset": 33792,
      "componentType": 5125,
      "count": 116736,
      "type": "SCALAR"
    }
  ],
  "asset": {
    "extras": {
      "author": "Šimon Ustal (https://sketchfab.com/simonustal)",
      "license": "CC-BY-4.0 (http://creativecommons.org/licenses/by/4.0/)",
      "source": "https://sketchfab.com/3d-models/carrot-vegetables-50412b64aa20474b87e2ed690464cfea",
      "title": "Carrot - Vegetables"
    },
    "generator": "Sketchfab-12.68.0",
    "version": "2.0"
  },
  "bufferViews": [
    {
      "buffer": 0,
      "byteLength": 500736,
      "name": "floatBufferViews",
      "target": 34963
    },
    {
      "buffer": 0,
      "byteLength": 166976,
      "byteOffset": 500736,
      "byteStride": 8,
      "name": "floatBufferViews",
      "target": 34962
    },
    {
      "buffer": 0,
      "byteLength": 500928,
      "byteOffset": 667712,
      "byteStride": 12,
      "name": "floatBufferViews",
      "target": 34962
    }
  ],
  "buffers": [
    {
      "byteLength": 1168640,
      "uri": "scene.bin"
    }
  ],
  "images": [
    {
      "uri": "textures/Material.001_baseColor.jpeg"
    },
    {
      "uri": "textures/Material.001_metallicRoughness.png"
    },
    {
      "uri": "textures/Material_baseColor.jpeg"
    },
    {
      "uri": "textures/Material_metallicRoughness.png"
    }
  ],
  "materials": [
    {
      "doubleSided": true,
      "name": "Material.001",
      "occlusionTexture": {
        "index": 1
      },
      "pbrMetallicRoughness": {
        "baseColorTexture": {
          "index": 0
        },
        "metallicFactor": 0.46380320911539563,
        "metallicRoughnessTexture": {
          "index": 1
        },
        "roughnessFactor": 0.8211145618000169
      }
    },
    {
      "doubleSided": true,
      "name": "Material",
      "occlusionTexture": {
        "index": 3
      },
      "pbrMetallicRoughness": {
        "baseColorTexture": {
          "index": 2
        },
        "metallicFactor": 0.12939368513215257,
        "metallicRoughnessTexture": {
          "index": 3
        },
        "roughnessFactor": 0.840205449051189
      }
    }
  ],
  "meshes": [
    {
      "name": "Cylinder_Material.001_0",
      "primitives": [
        {
          "attributes": {
            "NORMAL": 1,
            "POSITION": 0,
            "TEXCOORD_0": 2
          },
          "indices": 3,
          "material": 0,
          "mode": 4
        }
      ]
    },
    {
      "name": "Cylinder_Material_0",
      "primitives": [
        {
          "attributes": {
            "NORMAL": 5,
            "POSITION": 4,
            "TEXCOORD_0": 6
          },
          "indices": 7,
          "material": 1,
          "mode": 4
        }
      ]
    }
  ],
  "nodes": [
    {
      "children": [
        1
      ],
      "matrix": [
        1.0,
        0.0,
        0.0,
        0.0,
        0.0,
        2.220446049250313e-16,
        -1.0,
        0.0,
        0.0,
        1.0,
        2.220446049250313e-16,
        0.0,
        0.0,
        0.0,
        0.0,
        1.0
      ],
      "name": "Sketchfab_model"
    },
    {
      "children": [
        2
      ],
      "matrix": [
        1.0,
        0.0,
        0.0,
        0.0,
        0.0,
        0.0,
        1.0,
        0.0,
        0.0,
        -1.0,
        0.0,
        0.0,
        0.0,
        0.0,
        0.0,
        1.0
      ],
      "name": "0cf9f6c7b9ef4029bc699b4e6ec96ce7.fbx"
    },
    {
      "children": [
        3,
        6,
        8
      ],
      "name": "RootNode"
    },
    {
      "children": [
        4
      ],
      "matrix": [
        -29.08647719990347,
        -5.518906457566863,
        -95.51711910171437,
        0.0,
        56.63930913109449,
        79.46723428563203,
        -21.83912397841966,
        0.0,
        77.11008775993375,
        -60.45246356562044,
        -19.98834696773717,
        0.0,
        407.6245422363281,
        590.38623046875,
        -100.54539489746094,
        1.0
      ],
      "name": "Light"
    },
    {
      "children": [
        5
      ],
      "matrix": [
        1.0,
        0.0,
        0.0,
        0.0,
        0.0,
        2.220446049250313e-16,
        1.0,
        0.0,
        0.0,
        -1.0,
        2.220446049250313e-16,
        0.0,
        0.0,
        0.0,
        0.0,
        1.0
      ],
      "name": "Object_4"
    },
    {
      "name": "Object_5"
    },
    {
      "children": [
        7
      ],
      "matrix": [
        -65.15583280329096,
        -44.52713576570858,
        -61.41703047373549,
        0.0,
        -32.40134137821245,
        89.53957451233616,
        -30.542088974418615,
        0.0,
        68.59205472129975,
        -1.0718647115348782e-05,
        -72.7676336239627,
        0.0,
        735.88916015625,
        495.8309326171875,
        692.5791015625,
        1.0
      ],
      "name": "Camera"
    },
    {
      "name": "Object_7"
    },
    {
      "children": [
        9,
        10
      ],
      "matrix": [
        8.167334318478115,
        -1.3522023420422598,
        -5.434465427988145,
        0.0,
        1.5233111926536635,
        9.844878910491595,
        -0.16025063549433372,
        0.0,
        3.1625639386008078,
        -0.4103194860187161,
        4.855040906914633,
        0.0,
        67.36759185791016,
        8.75551700592041,
        105.03327941894531,
        1.0
      ],
      "name": "Cylinder"
    },
    {
      "mesh": 0,
      "name": "Cylinder_Material.001_0"
    },
    {
      "mesh": 1,
      "name": "Cylinder_Material_0"
    }
  ],
  "samplers": [
    {
      "magFilter": 9729,
      "minFilter": 9987,
      "wrapS": 10497,
      "wrapT": 10497
    }
  ],
  "scene": 0,
  "scenes": [
    {
      "name": "Sketchfab_Scene",
      "nodes": [
        0
      ]
    }
  ],
  "textures": [
    {
      "sampler": 0,
      "source": 0
    },
    {
      "sampler": 0,
      "source": 1
    },
    {
      "sampler": 0,
      "source": 2
    },
    {
      "sampler": 0,
      "source": 3
    }
  ]
}
