{
  "accessors": [
    {
      "bufferView": 2,
      "componentType": 5126,
      "count": 57036,
      "max": [
        0.19481471180915833,
        0.35962873697280884,
        0.553183913230896
      ],
      "min": [
        -0.4651172161102295,
        -0.37426191568374634,
        -0.44662535190582275
      ],
      "type": "VEC3"
    },
    {
      "bufferView": 2,
      "byteOffset": 684432,
      "componentType": 5126,
      "count": 57036,
      "max": [
        0.9999994039535522,
        0.9999999403953552,
        1.0
      ],
      "min": [
        -0.9999998211860657,
        -1.0,
        -0.9999998807907104
      ],
      "type": "VEC3"
    },
    {
      "bufferView": 1,
      "componentType": 5126,
      "count": 57036,
      "max": [
        0.9995238184928894,
        0.9995178580284119
      ],
      "min": [
        0.0004761904710903764,
        0.00048214197158813477
      ],
      "type": "VEC2"
    },
    {
      "bufferView": 0,
      "componentType": 5125,
      "count": 57036,
      "type": "SCALAR"
    }
  ],
  "asset": {
    "extras": {
      "author": "mahanunity (https://sketchfab.com/mahanunity)",
      "license": "CC-BY-4.0 (http://creativecommons.org/licenses/by/4.0/)",
      "source": "https://sketchfab.com/3d-models/trash-can-4e78a4e0d0d8454182e3c36eb99ea14a",
      "title": "trash can"
    },
    "generator": "Sketchfab-16.74.0",
    "version": "2.0"
  },
  "bufferViews": [
    {
      "buffer": 0,
      "byteLength": 228144,
      "name": "floatBufferViews",
      "target": 34963
    },
    {
      "buffer": 0,
      "byteLength": 456288,
      "byteOffset": 228144,
      "byteStride": 8,
      "name": "floatBufferViews",
      "target": 34962
    },
    {
      "buffer": 0,
      "byteLength": 1368864,
      "byteOffset": 684432,
      "byteStride": 12,
      "name": "floatBufferViews",
      "target": 34962
    }
  ],
  "buffers": [
    {
      "byteLength": 2053296,
      "uri": "scene.bin"
    }
  ],
  "materials": [
    {
      "doubleSided": true,
      "name": "Material_0",
      "pbrMetallicRoughness": {
        "baseColorFactor": [
          0.8,
          0.8,
          0.8,
          1.0
        ],
        "metallicFactor": 0.0
      }
    }
  ],
  "meshes": [
    {
      "name": "geometry_0_Material_0_0",
      "primitives": [
        {
          "attributes": {
            "NORMAL": 1,
            "POSITION": 0,
            "TEXCOORD_0": 2
          },
          "indices": 3,
          "material": 0,
          "mode": 4
        }
      ]
    }
  ],
  "nodes": [
    {
      "children": [
        1
      ],
      "matrix": [
        1.0,
        0.0,
        0.0,
        0.0,
        0.0,
        2.220446049250313e-16,
        -1.0,
        0.0,
        0.0,
        1.0,
        2.220446049250313e-16,
        0.0,
        0.0,
        0.0,
        0.0,
        1.0
      ],
      "name": "Sketchfab_model"
    },
    {
      "children": [
        2
      ],
      "matrix": [
        0.009999999776482582,
        0.0,
        0.0,
        0.0,
        0.0,
        0.0,
        0.009999999776482582,
        0.0,
        0.0,
        -0.009999999776482582,
        0.0,
        0.0,
        0.0,
        0.0,
        0.0,
        1.0
      ],
      "name": "ccc20909f67a41cd9aff315cafcfd61e.fbx"
    },
    {
      "children": [
        3
      ],
      "name": "RootNode"
    },
    {
      "children": [
        4
      ],
      "matrix": [
        100.0,
        0.0,
        0.0,
        0.0,
        0.0,
        -1.629206793918314e-05,
        -99.99999999999868,
        0.0,
        0.0,
        99.99999999999868,
        -1.629206793918314e-05,
        0.0,
        0.0,
        0.0,
        0.0,
        1.0
      ],
      "name": "world"
    },
    {
      "children": [
        5
      ],
      "matrix": [
        1.596516728401184,
        0.0,
        0.0,
        0.0,
        0.0,
        1.596516728401184,
        0.0,
        0.0,
        0.0,
        0.0,
        1.596516728401184,
        0.0,
        0.0,
        0.0,
        0.9712973237037659,
        1.0
      ],
      "name": "geometry_0"
    },
    {
      "mesh": 0,
      "name": "geometry_0_Material_0_0"
    }
  ],
  "scene": 0,
  "scenes": [
    {
      "name": "Sketchfab_Scene",
      "nodes": [
        0
      ]
    }
  ]
}
