{
  "accessors": [
    {
      "bufferView": 2,
      "componentType": 5126,
      "count": 204,
      "max": [
        0.4052279591560364,
        0.4260818362236023,
        3.4019813537597656
      ],
      "min": [
        -0.4052278995513916,
        -0.42608189582824707,
        0.018740519881248474
      ],
      "type": "VEC3"
    },
    {
      "bufferView": 2,
      "byteOffset": 2448,
      "componentType": 5126,
      "count": 204,
      "max": [
        0.9510565400123596,
        1.0,
        1.0
      ],
      "min": [
        -0.9510565996170044,
        -1.0,
        -1.0
      ],
      "type": "VEC3"
    },
    {
      "bufferView": 3,
      "componentType": 5126,
      "count": 204,
      "max": [
        1.0,
        0.9651358723640442,
        0.9941466450691223,
        1.0
      ],
      "min": [
        -1.0,
        -0.9526138305664063,
        -0.6021256446838379,
        1.0
      ],
      "type": "VEC4"
    },
    {
      "bufferView": 1,
      "componentType": 5126,
      "count": 204,
      "max": [
        0.9948733448982239,
        0.9855965971946716
      ],
      "min": [
        0.050080496817827225,
        0.14596810936927795
      ],
      "type": "VEC2"
    },
    {
      "bufferView": 0,
      "componentType": 5125,
      "count": 654,
      "type": "SCALAR"
    },
    {
      "bufferView": 2,
      "byteOffset": 4896,
      "componentType": 5126,
      "count": 203,
      "max": [
        3.4183645248413086,
        0.43989434838294983,
        3.4442291259765625
      ],
      "min": [
        2.5816354751586914,
        -0.4398944079875946,
        0.02351071685552597
      ],
      "type": "VEC3"
    },
    {
      "bufferView": 2,
      "byteOffset": 7332,
      "componentType": 5126,
      "count": 203,
      "max": [
        0.9491288065910339,
        0.9979731440544128,
        1.0
      ],
      "min": [
        -0.9491292834281921,
        -0.9979731440544128,
        -1.0
      ],
      "type": "VEC3"
    },
    {
      "bufferView": 3,
      "byteOffset": 3264,
      "componentType": 5126,
      "count": 203,
      "max": [
        1.0,
        0.953224778175354,
        0.9979276657104492,
        1.0
      ],
      "min": [
        -1.0,
        -0.953220784664154,
        -0.5900198221206665,
        1.0
      ],
      "type": "VEC4"
    },
    {
      "bufferView": 1,
      "byteOffset": 1632,
      "componentType": 5126,
      "count": 203,
      "max": [
        0.9923709630966187,
        0.9770118594169617
      ],
      "min": [
        0.017069436609745026,
        0.0076087163761258125
      ],
      "type": "VEC2"
    },
    {
      "bufferView": 0,
      "byteOffset": 2616,
      "componentType": 5125,
      "count": 714,
      "type": "SCALAR"
    }
  ],
  "asset": {
    "extras": {
      "author": "Ricardo Sanchez (https://sketchfab.com/380660711785)",
      "license": "CC-BY-4.0 (http://creativecommons.org/licenses/by/4.0/)",
      "source": "https://sketchfab.com/3d-models/empty-beer-bottles-c5c009d8f7e6473c8eea32cbf5bab14e",
      "title": "Empty beer bottles"
    },
    "generator": "Sketchfab-12.68.0",
    "version": "2.0"
  },
  "bufferViews": [
    {
      "buffer": 0,
      "byteLength": 5472,
      "name": "floatBufferViews",
      "target": 34963
    },
    {
      "buffer": 0,
      "byteLength": 3256,
      "byteOffset": 5472,
      "byteStride": 8,
      "name": "floatBufferViews",
      "target": 34962
    },
    {
      "buffer": 0,
      "byteLength": 9768,
      "byteOffset": 8728,
      "byteStride": 12,
      "name": "floatBufferViews",
      "target": 34962
    },
    {
      "buffer": 0,
      "byteLength": 6512,
      "byteOffset": 18496,
      "byteStride": 16,
      "name": "floatBufferViews",
      "target": 34962
    }
  ],
  "buffers": [
    {
      "byteLength": 25008,
      "uri": "scene.bin"
    }
  ],
  "images": [
    {
      "uri": "textures/Material_baseColor.png"
    },
    {
      "uri": "textures/Material_metallicRoughness.png"
    },
    {
      "uri": "textures/Material_normal.png"
    }
  ],
  "materials": [
    {
      "doubleSided": true,
      "name": "Material",
      "normalTexture": {
        "index": 2
      },
      "pbrMetallicRoughness": {
        "baseColorTexture": {
          "index": 0
        },
        "metallicRoughnessTexture": {
          "index": 1
        }
      }
    }
  ],
  "meshes": [
    {
      "name": "Beer_Bottle1_Material_0",
      "primitives": [
        {
          "attributes": {
            "NORMAL": 1,
            "POSITION": 0,
            "TANGENT": 2,
            "TEXCOORD_0": 3
          },
          "indices": 4,
          "material": 0,
          "mode": 4
        }
      ]
    },
    {
      "name": "Beer_Bottle2_Material_0",
      "primitives": [
        {
          "attributes": {
            "NORMAL": 6,
            "POSITION": 5,
            "TANGENT": 7,
            "TEXCOORD_0": 8
          },
          "indices": 9,
          "material": 0,
          "mode": 4
        }
      ]
    }
  ],
  "nodes": [
    {
      "children": [
        1
      ],
      "matrix": [
        1.0,
        0.0,
        0.0,
        0.0,
        0.0,
        2.220446049250313e-16,
        -1.0,
        0.0,
        0.0,
        1.0,
        2.220446049250313e-16,
        0.0,
        0.0,
        0.0,
        0.0,
        1.0
      ],
      "name": "Sketchfab_model"
    },
    {
      "children": [
        2
      ],
      "matrix": [
        0.009999999776482582,
        0.0,
        0.0,
        0.0,
        0.0,
        0.0,
        0.009999999776482582,
        0.0,
        0.0,
        -0.009999999776482582,
        0.0,
        0.0,
        0.0,
        0.0,
        0.0,
        1.0
      ],
      "name": "Beer_bottle.fbx"
    },
    {
      "children": [
        3,
        5
      ],
      "name": "RootNode"
    },
    {
      "children": [
        4
      ],
      "matrix": [
        100.0,
        0.0,
        0.0,
        0.0,
        0.0,
        -1.629206793918314e-05,
        -99.99999999999868,
        0.0,
        0.0,
        99.99999999999868,
        -1.629206793918314e-05,
        0.0,
        0.0,
        0.0,
        0.0,
        1.0
      ],
      "name": "Beer_Bottle1"
    },
    {
      "mesh": 0,
      "name": "Beer_Bottle1_Material_0"
    },
    {
      "children": [
        6
      ],
      "matrix": [
        100.0,
        0.0,
        0.0,
        0.0,
        0.0,
        -1.629206793918314e-05,
        -99.99999999999868,
        0.0,
        0.0,
        99.99999999999868,
        -1.629206793918314e-05,
        0.0,
        0.0,
        0.0,
        0.0,
        1.0
      ],
      "name": "Beer_Bottle2"
    },
    {
      "mesh": 1,
      "name": "Beer_Bottle2_Material_0"
    }
  ],
  "samplers": [
    {
      "magFilter": 9729,
      "minFilter": 9987,
      "wrapS": 10497,
      "wrapT": 10497
    }
  ],
  "scene": 0,
  "scenes": [
    {
      "name": "Sketchfab_Scene",
      "nodes": [
        0
      ]
    }
  ],
  "textures": [
    {
      "sampler": 0,
      "source": 0
    },
    {
      "sampler": 0,
      "source": 1
    },
    {
      "sampler": 0,
      "source": 2
    }
  ]
}
